<svg width="24" height="25" viewBox="0 0 24 25" fill="none" xmlns="http://www.w3.org/2000/svg">
<path d="M11.5554 11.6667C14.5009 11.6667 16.8887 9.27885 16.8887 6.33333C16.8887 3.38781 14.5009 1 11.5554 1C8.60989 1 6.22208 3.38781 6.22208 6.33333C6.22208 9.27885 8.60989 11.6667 11.5554 11.6667Z" stroke="#9491AE" stroke-width="2"/>
<path d="M22.2135 19.9222L21.3278 19.9983L22.2135 19.9222ZM0.897408 19.9222L1.78304 19.9982L0.897408 19.9222ZM21.2943 21.8713L21.7633 22.6263L21.2943 21.8713ZM1.81656 21.8713L2.28561 21.1162L1.81656 21.8713ZM21.1433 16.4631L21.9397 16.0684L21.1433 16.4631ZM20.8252 21.1162C19.5575 21.9037 16.6767 23.2222 11.5554 23.2222V25C17.0003 25 20.2071 23.593 21.7633 22.6263L20.8252 21.1162ZM11.5554 23.2222C6.43408 23.2222 3.55341 21.9037 2.28561 21.1162L1.34751 22.6263C2.90365 23.593 6.11056 25 11.5554 25V23.2222ZM0.0117724 19.8462C-0.079961 20.915 0.364332 22.0156 1.34751 22.6263L2.28561 21.1162C1.94739 20.9061 1.74039 20.4952 1.78304 19.9982L0.0117724 19.8462ZM21.3278 19.9983C21.3704 20.4952 21.1634 20.9061 20.8252 21.1162L21.7633 22.6263C22.7465 22.0156 23.1908 20.915 23.0991 19.8462L21.3278 19.9983ZM20.3469 16.8579C20.7735 17.7187 21.2319 18.8805 21.3278 19.9983L23.0991 19.8462C22.9751 18.4027 22.4049 17.0068 21.9397 16.0684L20.3469 16.8579ZM1.78304 19.9982C1.87898 18.8805 2.33727 17.7187 2.76396 16.8579L1.17113 16.0684C0.705932 17.0068 0.135675 18.4027 0.0117724 19.8462L1.78304 19.9982ZM19.0184 14.3333H4.09236V16.1111H19.0184V14.3333ZM2.76396 16.8579C2.98643 16.4091 3.48375 16.1111 4.09236 16.1111V14.3333C2.91921 14.3333 1.73999 14.9207 1.17113 16.0684L2.76396 16.8579ZM21.9397 16.0684C21.3709 14.9207 20.1916 14.3333 19.0184 14.3333V16.1111C19.6271 16.1111 20.1244 16.4091 20.3469 16.8579L21.9397 16.0684Z" fill="#9491AE"/>
</svg>
