<svg width="36" height="36" viewBox="0 0 36 36" fill="none" xmlns="http://www.w3.org/2000/svg">
<g style="mix-blend-mode:overlay">
<path d="M18 3.375V11.2453M32.625 18C32.625 26.0772 26.0772 32.625 18 32.625C9.92284 32.625 3.375 26.0772 3.375 18C3.375 9.92284 9.92284 3.375 18 3.375C26.0772 3.375 32.625 9.92284 32.625 18ZM11.2453 18C11.2453 21.7305 14.2695 24.7547 18 24.7547C21.7305 24.7547 24.7547 21.7305 24.7547 18C24.7547 14.2695 21.7305 11.2453 18 11.2453C14.2695 11.2453 11.2453 14.2695 11.2453 18ZM3.375 18H11.2453H3.375Z" stroke="white" stroke-width="3"/>
</g>
</svg>
