<svg width="21" height="22" viewBox="0 0 21 22" fill="none" xmlns="http://www.w3.org/2000/svg">
<path d="M3.62105 9.42857L2.78052 9.26066L2.77234 9.30154L2.76818 9.34303L3.62105 9.42857ZM17.0904 9.42857H17.9475V9.3438L17.931 9.26066L17.0904 9.42857ZM12.9272 3.93544H12.07V4.49922L12.5877 4.72251L12.9272 3.93544ZM7.78431 3.93543L8.12374 4.7225L8.64145 4.49922V3.93543H7.78431ZM17.0904 14.5714H16.2333V14.8396L16.3862 15.06L17.0904 14.5714ZM3.10528 14.5714L3.85284 14.9907L3.94031 14.8348L3.95815 14.657L3.10528 14.5714ZM19.84 18.7695L18.9881 18.8643L19.84 18.7695ZM19.6018 18.1912L20.3061 17.7026L19.6018 18.1912ZM0.882168 18.6864L1.73034 18.8101L0.882168 18.6864ZM1.04278 18.2481L0.295222 17.8288L1.04278 18.2481ZM2.24814 21.4286H18.4634V19.7143H2.24814V21.4286ZM18.4634 21.4286C19.234 21.4286 19.8705 21.0886 20.2683 20.5221C20.6469 19.983 20.7626 19.3107 20.6919 18.6748L18.9881 18.8643C19.0239 19.1856 18.9516 19.4142 18.8655 19.5368C18.7988 19.6318 18.6936 19.7143 18.4634 19.7143V21.4286ZM0.0339988 18.5627C-0.0613412 19.2165 0.037522 19.9129 0.410859 20.4748C0.804356 21.067 1.45312 21.4286 2.24814 21.4286V19.7143C2.01333 19.7143 1.90686 19.6287 1.8387 19.5261C1.75038 19.3932 1.68118 19.1472 1.73034 18.8101L0.0339988 18.5627ZM8.64145 3.42857C8.64145 2.4818 9.40894 1.71429 10.3557 1.71429V0C8.46222 0 6.92717 1.53502 6.92717 3.42857H8.64145ZM10.3557 1.71429C11.3025 1.71429 12.07 2.4818 12.07 3.42857H13.7843C13.7843 1.53502 12.2493 0 10.3557 0V1.71429ZM12.5877 4.72251C14.0158 5.33847 14.9348 6.52332 15.5067 7.62076C15.7899 8.16411 15.9782 8.66777 16.0951 9.0342C16.1534 9.21677 16.1933 9.36351 16.2181 9.46183C16.2305 9.51086 16.2391 9.54771 16.2442 9.57077C16.2469 9.58226 16.2486 9.59031 16.2495 9.59469C16.25 9.59683 16.2502 9.59811 16.2503 9.59846C16.2503 9.59854 16.2503 9.59846 16.2502 9.5982C16.2502 9.59803 16.2501 9.59777 16.2501 9.59751C16.2501 9.59743 16.2501 9.59717 16.2501 9.59709C16.25 9.59683 16.2499 9.59649 17.0904 9.42857C17.931 9.26066 17.9309 9.26031 17.9308 9.25997C17.9308 9.25989 17.9307 9.25954 17.9307 9.2592C17.9306 9.25869 17.9305 9.25817 17.9303 9.25749C17.9301 9.2562 17.9297 9.25466 17.9294 9.25286C17.9287 9.24926 17.9277 9.24471 17.9265 9.23923C17.9242 9.22817 17.921 9.21326 17.9169 9.19483C17.9085 9.15789 17.8965 9.10637 17.8802 9.042C17.8477 8.91334 17.7983 8.73266 17.7283 8.51323C17.5887 8.07583 17.3652 7.47753 17.027 6.82845C16.356 5.54107 15.1933 3.97935 13.2666 3.14839L12.5877 4.72251ZM13.7843 3.93544V3.42857H12.07V3.93544H13.7843ZM3.62105 9.42857C4.46157 9.59649 4.46152 9.59683 4.46146 9.59709C4.46145 9.59717 4.4614 9.59743 4.46137 9.59751C4.46131 9.59777 4.46127 9.59803 4.46124 9.5982C4.46118 9.59846 4.46116 9.59854 4.46119 9.59846C4.46125 9.59811 4.46152 9.59683 4.46198 9.59469C4.46291 9.59031 4.46464 9.58226 4.46722 9.57077C4.4724 9.54771 4.48098 9.51086 4.49338 9.46183C4.5182 9.36351 4.55815 9.21677 4.61639 9.0342C4.73327 8.66777 4.92155 8.16411 5.20473 7.62075C5.77671 6.52331 6.69565 5.33847 8.12374 4.7225L7.44488 3.14838C5.5182 3.97935 4.35549 5.54106 3.68453 6.82845C3.34624 7.47752 3.12272 8.07583 2.98318 8.51323C2.91321 8.73266 2.86379 8.91334 2.83129 9.042C2.81503 9.10637 2.80297 9.15789 2.79467 9.19483C2.79051 9.21326 2.78729 9.22817 2.78496 9.23923C2.78378 9.24471 2.78283 9.24926 2.78209 9.25286C2.78172 9.25466 2.78142 9.2562 2.78115 9.25749C2.78102 9.25817 2.7809 9.25869 2.78079 9.25929C2.78074 9.25954 2.78067 9.25989 2.78064 9.25997C2.78058 9.26031 2.78052 9.26066 3.62105 9.42857ZM8.64145 3.93543V3.42857H6.92717V3.93543H8.64145ZM20.3061 17.7026L17.7947 14.0829L16.3862 15.06L18.8976 18.6798L20.3061 17.7026ZM17.9475 14.5714V9.42857H16.2333V14.5714H17.9475ZM1.79034 18.6675L3.85284 14.9907L2.35772 14.1521L0.295222 17.8288L1.79034 18.6675ZM3.95815 14.657L4.47391 9.51411L2.76818 9.34303L2.25241 14.4859L3.95815 14.657ZM20.6919 18.6748C20.6472 18.2723 20.4728 17.9429 20.3061 17.7026L18.8976 18.6798C18.9722 18.7873 18.9861 18.846 18.9881 18.8643L20.6919 18.6748ZM1.73034 18.8101C1.73254 18.795 1.74335 18.7513 1.79034 18.6675L0.295222 17.8288C0.188765 18.0186 0.0770617 18.2674 0.0339988 18.5627L1.73034 18.8101Z" fill="#9491AE"/>
</svg>
