<svg width="36" height="36" viewBox="0 0 36 36" fill="none" xmlns="http://www.w3.org/2000/svg">
<g style="mix-blend-mode:overlay">
<path d="M3.375 10.125H4.5H3.375ZM3.375 28.125H2.25H3.375ZM28.125 32.625V31.5V32.625ZM7.875 32.625V33.75V32.625ZM32.625 10.125H31.5H32.625ZM32.625 28.125H33.75H32.625ZM28.125 5.62505V6.75004V5.62505ZM7.87501 5.62501V4.50001V5.62501ZM32.625 14.625C33.2463 14.625 33.75 14.1213 33.75 13.5C33.75 12.8787 33.2463 12.375 32.625 12.375V14.625ZM3.375 12.375C2.75368 12.375 2.25 12.8787 2.25 13.5C2.25 14.1213 2.75368 14.625 3.375 14.625V12.375ZM10.125 7.875C10.125 8.49632 10.6287 9 11.25 9C11.8713 9 12.375 8.49632 12.375 7.875H10.125ZM12.375 3.375C12.375 2.75368 11.8713 2.25 11.25 2.25C10.6287 2.25 10.125 2.75368 10.125 3.375H12.375ZM23.625 7.875C23.625 8.49633 24.1287 9 24.75 9C25.3713 9 25.875 8.49632 25.875 7.875H23.625ZM25.875 3.375C25.875 2.75367 25.3713 2.25 24.75 2.25C24.1287 2.25 23.625 2.75368 23.625 3.375H25.875ZM10.125 19.125C9.50367 19.125 9 19.6287 9 20.25C9 20.8713 9.50367 21.375 10.125 21.375V19.125ZM12.375 21.375C12.9963 21.375 13.5 20.8713 13.5 20.25C13.5 19.6287 12.9963 19.125 12.375 19.125V21.375ZM16.875 19.125C16.2537 19.125 15.75 19.6287 15.75 20.25C15.75 20.8713 16.2537 21.375 16.875 21.375V19.125ZM19.125 21.375C19.7463 21.375 20.25 20.8713 20.25 20.25C20.25 19.6287 19.7463 19.125 19.125 19.125V21.375ZM23.625 19.125C23.0037 19.125 22.5 19.6287 22.5 20.25C22.5 20.8713 23.0037 21.375 23.625 21.375V19.125ZM25.875 21.375C26.4963 21.375 27 20.8713 27 20.25C27 19.6287 26.4963 19.125 25.875 19.125V21.375ZM10.125 24.75C9.50367 24.75 9 25.2537 9 25.875C9 26.4963 9.50367 27 10.125 27V24.75ZM12.375 27C12.9963 27 13.5 26.4963 13.5 25.875C13.5 25.2537 12.9963 24.75 12.375 24.75V27ZM16.875 24.75C16.2537 24.75 15.75 25.2537 15.75 25.875C15.75 26.4963 16.2537 27 16.875 27V24.75ZM19.125 27C19.7463 27 20.25 26.4963 20.25 25.875C20.25 25.2537 19.7463 24.75 19.125 24.75V27ZM23.625 24.75C23.0037 24.75 22.5 25.2537 22.5 25.875C22.5 26.4963 23.0037 27 23.625 27V24.75ZM25.875 27C26.4963 27 27 26.4963 27 25.875C27 25.2537 26.4963 24.75 25.875 24.75V27ZM2.25 10.125V28.125H4.5V10.125H2.25ZM28.125 31.5H7.875V33.75H28.125V31.5ZM31.5 10.125V28.125H33.75V10.125H31.5ZM28.125 4.50005L7.87501 4.50001V6.75001L28.125 6.75004V4.50005ZM33.75 10.125C33.75 7.01845 31.2316 4.50006 28.125 4.50005V6.75004C29.989 6.75006 31.5 8.26109 31.5 10.125H33.75ZM4.5 10.125C4.5 8.26104 6.01104 6.75 7.87501 6.75001V4.50001C4.7684 4.5 2.25 7.0184 2.25 10.125H4.5ZM2.25 28.125C2.25 31.2316 4.76839 33.75 7.875 33.75V31.5C6.01103 31.5 4.5 29.989 4.5 28.125H2.25ZM28.125 33.75C31.2316 33.75 33.75 31.2316 33.75 28.125H31.5C31.5 29.989 29.989 31.5 28.125 31.5V33.75ZM32.625 12.375H3.375V14.625H32.625V12.375ZM12.375 7.875V3.375H10.125V7.875H12.375ZM25.875 7.875V3.375H23.625V7.875H25.875ZM10.125 21.375H12.375V19.125H10.125V21.375ZM16.875 21.375H19.125V19.125H16.875V21.375ZM23.625 21.375H25.875V19.125H23.625V21.375ZM10.125 27H12.375V24.75H10.125V27ZM16.875 27H19.125V24.75H16.875V27ZM23.625 27H25.875V24.75H23.625V27Z" fill="white" stroke="white"/>
</g>
</svg>
