<svg width="24" height="24" viewBox="0 0 24 24" fill="none" xmlns="http://www.w3.org/2000/svg">
<path d="M3.6041 22.7841L4.12044 23.4682L3.6041 22.7841ZM8.39589 19.1678L8.91223 19.8519L8.39589 19.1678ZM10.4613 19.1678L10.9776 18.4836L10.4613 19.1678ZM15.253 22.7841L15.7694 22.0999L15.253 22.7841ZM18 7.71429C17.5266 7.71429 17.1429 8.09803 17.1429 8.57143C17.1429 9.04483 17.5266 9.42857 18 9.42857V7.71429ZM0 3.42857V21.4157H1.71429V3.42857H0ZM4.12044 23.4682L8.91223 19.8519L7.87954 18.4836L3.08776 22.0999L4.12044 23.4682ZM9.94491 19.8519L14.7367 23.4682L15.7694 22.0999L10.9776 18.4836L9.94491 19.8519ZM18.8571 21.4157V3.23077H17.1429V21.4157H18.8571ZM14.7367 23.4682C16.4309 24.7468 18.8571 23.5383 18.8571 21.4157H17.1429C17.1429 22.1232 16.3341 22.5261 15.7694 22.0999L14.7367 23.4682ZM8.91223 19.8519C9.2178 19.6213 9.63934 19.6213 9.94491 19.8519L10.9776 18.4836C10.0608 17.7917 8.79634 17.7917 7.87954 18.4836L8.91223 19.8519ZM0 21.4157C0 23.5383 2.42624 24.7468 4.12044 23.4682L3.08776 22.0999C2.52303 22.5261 1.71429 22.1232 1.71429 21.4157H0ZM18.8571 3.23077C18.8571 2.45655 19.5588 1.71429 20.5714 1.71429V0C18.7437 0 17.1429 1.38315 17.1429 3.23077H18.8571ZM20.5714 1.71429C21.5841 1.71429 22.2857 2.45655 22.2857 3.23077H24C24 1.38315 22.3991 0 20.5714 0V1.71429ZM22.2857 3.23077V6.85714H24V3.23077H22.2857ZM21.4286 7.71429H18V9.42857H21.4286V7.71429ZM22.2857 6.85714C22.2857 7.33054 21.902 7.71429 21.4286 7.71429V9.42857C22.8488 9.42857 24 8.27734 24 6.85714H22.2857ZM1.71429 3.42857C1.71429 2.43655 2.46392 1.71429 3.29032 1.71429V0C1.42911 0 0 1.58027 0 3.42857H1.71429ZM3.29032 1.71429H20.5714V0H3.29032V1.71429Z" fill="#9491AE"/>
</svg>
