<svg width="36" height="36" viewBox="0 0 36 36" fill="none" xmlns="http://www.w3.org/2000/svg">
<g style="mix-blend-mode:overlay">
<path d="M13.5 25.875H18M13.5 20.25H22.5H13.5Z" stroke="white" stroke-width="2" stroke-linecap="round"/>
<path d="M6.75003 11.25L5.95455 10.4545C5.74356 10.6655 5.62503 10.9516 5.62503 11.25H6.75003ZM14.625 3.375V2.25C14.3266 2.25 14.0406 2.36853 13.8295 2.5795L14.625 3.375ZM29.25 7.875H28.125H29.25ZM29.25 28.125H30.375H29.25ZM6.75 28.125H7.875H6.75ZM15.75 12.375V13.5C16.3713 13.5 16.875 12.9963 16.875 12.375H15.75ZM6.75003 12.375H5.62503H6.75003ZM7.54553 12.0455L15.4205 4.1705L13.8295 2.5795L5.95455 10.4545L7.54553 12.0455ZM11.25 33.75H24.75V31.5H11.25V33.75ZM28.125 7.875V28.125H30.375V7.875H28.125ZM11.25 31.5C9.38603 31.5 7.875 29.989 7.875 28.125H5.625C5.62499 31.2316 8.14339 33.75 11.25 33.75V31.5ZM24.75 33.75C27.8567 33.75 30.375 31.2316 30.375 28.125H28.125C28.125 29.989 26.614 31.5 24.75 31.5V33.75ZM24.75 4.5C26.614 4.5 28.125 6.01104 28.125 7.875H30.375C30.375 4.7684 27.8567 2.25 24.75 2.25V4.5ZM14.625 4.5H15.75V2.25H14.625V4.5ZM15.75 4.5H24.75V2.25H15.75V4.5ZM5.62503 11.25V12.375H7.87503V11.25H5.62503ZM5.62503 12.375L5.625 28.125H7.875L7.87503 12.375H5.62503ZM14.625 3.375V12.375H16.875V3.375H14.625ZM15.75 11.25H6.75003V13.5H15.75V11.25Z" fill="white" stroke="white"/>
</g>
</svg>
