<svg width="36" height="36" viewBox="0 0 36 36" fill="none" xmlns="http://www.w3.org/2000/svg">
<g style="mix-blend-mode:overlay">
<path d="M6.98038 32.1541L7.65808 33.0521L6.98038 32.1541ZM13.2696 27.4077L13.9473 28.3057L13.2696 27.4077ZM15.9804 27.4077L16.6581 26.5097L15.9804 27.4077ZM22.2696 32.1541L22.9473 31.2561L22.2696 32.1541ZM25.875 12.375C25.2537 12.375 24.75 12.8787 24.75 13.5C24.75 14.1213 25.2537 14.625 25.875 14.625V12.375ZM2.25 6.75V30.3581H4.5V6.75H2.25ZM7.65808 33.0521L13.9473 28.3057L12.5919 26.5097L6.30269 31.2561L7.65808 33.0521ZM15.3027 28.3057L21.5919 33.0521L22.9473 31.2561L16.6581 26.5097L15.3027 28.3057ZM27 30.3581V6.49038H24.75V30.3581H27ZM21.5919 33.0521C23.8156 34.7302 27 33.144 27 30.3581H24.75C24.75 31.2867 23.6886 31.8154 22.9473 31.2561L21.5919 33.0521ZM13.9473 28.3057C14.3484 28.0029 14.9016 28.0029 15.3027 28.3057L16.6581 26.5097C15.4548 25.6016 13.7952 25.6016 12.5919 26.5097L13.9473 28.3057ZM2.25 30.3581C2.25 33.144 5.43444 34.7302 7.65808 33.0521L6.30269 31.2561C5.56148 31.8154 4.5 31.2867 4.5 30.3581H2.25ZM27 6.49038C27 5.47422 27.9209 4.5 29.25 4.5V2.25C26.8512 2.25 24.75 4.06539 24.75 6.49038H27ZM29.25 4.5C30.5791 4.5 31.5 5.47422 31.5 6.49038H33.75C33.75 4.06539 31.6488 2.25 29.25 2.25V4.5ZM31.5 6.49038V11.25H33.75V6.49038H31.5ZM30.375 12.375H25.875V14.625H30.375V12.375ZM31.5 11.25C31.5 11.8713 30.9963 12.375 30.375 12.375V14.625C32.239 14.625 33.75 13.114 33.75 11.25H31.5ZM4.5 6.75C4.5 5.44797 5.48389 4.5 6.56855 4.5V2.25C4.12571 2.25 2.25 4.32411 2.25 6.75H4.5ZM6.56855 4.5H29.25V2.25H6.56855V4.5Z" fill="white" stroke="white"/>
</g>
</svg>
