<svg width="23" height="40" viewBox="0 0 23 40" fill="none" xmlns="http://www.w3.org/2000/svg">
<path fill-rule="evenodd" clip-rule="evenodd" d="M15.4048 1.49007C14.6756 0.643118 13.3857 0.64626 12.5984 1.4395C11.8196 2.22428 11.8278 3.48631 12.5403 4.33179C20.1099 13.3145 20.2756 26.6374 12.8173 35.6678C12.1171 36.5155 12.114 37.7688 12.8885 38.5491C13.6803 39.3469 14.9793 39.3451 15.7046 38.4864C24.6692 27.8733 24.4928 12.0463 15.4048 1.49007ZM7.07852 7.00144C7.86575 6.20821 9.15768 6.20268 9.86225 7.07015C15.8858 14.4863 15.8858 25.2099 9.86223 32.6261C9.15767 33.4936 7.86575 33.488 7.07853 32.6948C6.29971 31.9101 6.31218 30.6502 6.9891 29.7761C11.4964 23.9554 11.4964 15.7409 6.9891 9.9202C6.31218 9.04603 6.29971 7.78618 7.07852 7.00144ZM1.40706 26.9803C2.19428 27.7736 3.49413 27.7809 4.13906 26.8682C7.09957 22.6785 7.09955 17.0176 4.13901 12.828C3.49409 11.9153 2.1943 11.9227 1.40709 12.7159C0.628261 13.5006 0.656192 14.7583 1.21981 15.7094C2.72559 18.2507 2.7256 21.4455 1.21985 23.9867C0.656226 24.9379 0.628249 26.1955 1.40706 26.9803Z" fill="white" fill-opacity="0.5"/>
</svg>
